<?xml version="1.0" encoding="UTF-8"?>
<svg id="Layer_2" data-name="Layer 2" xmlns="http://www.w3.org/2000/svg" viewBox="0 0 1500 630.25">
  <defs>
    <style>
      .cls-1 {
        fill: #fff;
      }

      .cls-2 {
        fill: #fe0000;
      }
    </style>
  </defs>
  <rect class="cls-2" width="1500" height="630.25"/>
  <g>
    <g>
      <path class="cls-1" d="M69.38,444.09V50.86h157.48l197.27,299.32-2.62-299.32h93.63v393.24h-158.91L161.82,147.94l2.86,296.15h-95.3Z"/>
      <path class="cls-1" d="M549.32,444.09V50.86h99.11v145.2h225.14V50.86h99.11v393.24h-99.11v-150.96h-225.14v150.96h-99.11Z"/>
      <path class="cls-1" d="M1008.6,444.09V50.86h99.11v145.2h225.14V50.86h99.11v393.24h-99.11v-150.96h-225.14v150.96h-99.11Z"/>
    </g>
    <g>
      <path class="cls-1" d="M65.77,577.81v-93.98h28.64v34.7h65.06v-34.7h28.64v93.98h-28.64v-36.08h-65.06v36.08h-28.64Z"/>
      <path class="cls-1" d="M208.72,501.46v-17.62h24.23v17.62h-24.23ZM208.72,577.81v-65.82h24.23v65.82h-24.23Z"/>
      <path class="cls-1" d="M251.71,577.81v-65.82h23.27v14.66c1.24-3.44,2.28-5.87,3.13-7.3.85-1.42,2.01-2.71,3.48-3.86,4.31-3.35,11.13-5.03,20.45-5.03,10.51,0,17.76,2.43,21.76,7.3,2.94,3.54,4.41,9.87,4.41,19,0,.73-.05,2.16-.14,4.27h-22.72c.05-.5.07-.85.07-1.03,0-3.76-.99-6.45-2.96-8.06-1.97-1.61-5.28-2.41-9.91-2.41-6.84,0-11.54,1.93-14.11,5.78-1.65,2.43-2.48,6.5-2.48,12.19v30.29h-24.23Z"/>
      <path class="cls-1" d="M403.74,556.88h23.82c-.09,5.05-.99,9-2.69,11.84-2.43,3.95-6.4,6.64-11.91,8.09-5.51,1.45-14.62,2.17-27.33,2.17-11.61,0-20.56-.57-26.85-1.72-3.81-.73-7.23-2.19-10.26-4.37-3.03-2.18-5.26-4.83-6.68-7.95-2.11-4.5-3.17-10.88-3.17-19.14,0-6.2.41-11.18,1.24-14.94.83-3.76,2.23-7,4.2-9.71,3.99-5.6,10.49-8.81,19.48-9.64,5.23-.46,12-.69,20.31-.69,11.84,0,20.54.55,26.09,1.65,5.55,1.1,9.94,3.99,13.15,8.67,2.94,4.22,4.41,11.32,4.41,21.27v7.23h-64.23v3.1c0,3.58.79,6.23,2.38,7.95,1.58,1.72,4.23,2.79,7.95,3.2,3.07.32,7.32.48,12.74.48,6.61,0,11.08-.5,13.43-1.51s3.65-3.01,3.92-5.99ZM403.95,536.71c-.05-4.73-1.34-7.78-3.89-9.16-2.55-1.38-8.18-2.07-16.9-2.07-5,0-8.73.23-11.19.69-2.46.46-4.35,1.26-5.68,2.41-1.93,1.75-2.89,4.09-2.89,7.02v1.1h40.55Z"/>
      <path class="cls-1" d="M515.25,531.82v24.03h-48.81v-24.03h48.81Z"/>
      <path class="cls-1" d="M561.55,577.81v-93.98h28.64v34.7h65.06v-34.7h28.64v93.98h-28.64v-36.08h-65.06v36.08h-28.64Z"/>
      <path class="cls-1" d="M765.57,577.81v-11.63c-1.56,5.28-4.35,8.79-8.37,10.53s-11.39,2.62-22.13,2.62c-7.71,0-13.72-.33-18.04-1-4.31-.67-7.55-1.76-9.71-3.27-2.3-1.65-3.96-3.81-4.99-6.47-1.03-2.66-1.55-6.2-1.55-10.6s.52-7.97,1.55-10.71c1.03-2.73,2.7-4.9,4.99-6.51,2.75-1.97,6.34-3.27,10.77-3.89,4.43-.62,12.17-.93,23.24-.93,8.03,0,13.65.56,16.87,1.69,3.21,1.12,5.44,3.32,6.68,6.58v-7.3c0-3.49-.39-5.96-1.17-7.4-.78-1.45-2.27-2.42-4.48-2.93-2.43-.6-7.41-.89-14.94-.89-7.07,0-11.54.3-13.43.89-1.88.6-2.94,2.09-3.17,4.47h-24.17c.23-4.27,1.06-7.6,2.48-9.98,1.42-2.39,3.83-4.47,7.23-6.27,3.26-1.7,7.32-2.84,12.19-3.44,4.86-.6,12.71-.9,23.55-.9,8.72,0,15.41.32,20.07.96,4.66.64,8.46,1.75,11.39,3.3,4.77,2.62,7.78,7.14,9.02,13.56.23,1.29.34,4.16.34,8.61v40.9h-24.23ZM743.88,549.45c-7.57,0-12.66.49-15.25,1.48-2.59.99-3.89,2.95-3.89,5.89,0,3.86,2.48,6.2,7.44,7.02,1.51.28,6.15.41,13.91.41,6.15,0,10.37-.21,12.67-.62,4.36-.83,6.54-3.14,6.54-6.95,0-2.98-1.33-4.93-3.99-5.85-2.66-.92-8.47-1.38-17.42-1.38Z"/>
      <path class="cls-1" d="M808.1,577.81v-65.82h23.27v14.66c1.24-3.44,2.28-5.87,3.13-7.3.85-1.42,2.01-2.71,3.48-3.86,4.31-3.35,11.13-5.03,20.45-5.03,10.51,0,17.76,2.43,21.76,7.3,2.94,3.54,4.41,9.87,4.41,19,0,.73-.05,2.16-.14,4.27h-22.72c.05-.5.07-.85.07-1.03,0-3.76-.99-6.45-2.96-8.06-1.97-1.61-5.28-2.41-9.91-2.41-6.84,0-11.54,1.93-14.11,5.78-1.65,2.43-2.48,6.5-2.48,12.19v30.29h-24.23Z"/>
      <path class="cls-1" d="M965.11,577.81v-14.39c-1.1,3.35-2.28,5.89-3.55,7.61-1.26,1.72-3.04,3.25-5.33,4.58-4.5,2.52-11.45,3.79-20.86,3.79-15.56,0-26.23-1.84-32.01-5.51-3.44-2.25-5.8-5.32-7.06-9.23-1.26-3.9-1.89-10.1-1.89-18.59,0-10.69,1.01-18.29,3.03-22.79,3.86-8.54,15.72-12.81,35.59-12.81,8.81,0,15.7.9,20.65,2.68,2.2.83,4.04,1.94,5.51,3.34,1.47,1.4,3.19,3.68,5.16,6.85v-39.52h24.23v93.98h-23.48ZM940.74,528.45c-5.6,0-9.6.2-12.01.58-2.41.39-4.28,1.16-5.61,2.31-1.56,1.33-2.65,3.03-3.27,5.1-.62,2.06-.93,5.03-.93,8.88,0,4.41.39,7.64,1.17,9.71.78,2.07,2.23,3.56,4.34,4.48,2.57,1.19,8.15,1.79,16.73,1.79,10.65,0,17.17-.94,19.55-2.82,1.47-1.1,2.5-2.66,3.1-4.68s.9-4.87.9-8.54c0-4.41-.38-7.72-1.14-9.95-.76-2.23-2.05-3.82-3.89-4.79-2.48-1.38-8.79-2.06-18.93-2.06Z"/>
      <path class="cls-1" d="M1025.82,577.81l-24.07-65.82h25.64l15.18,49.09,18.19-49.09h23.04l17.84,49.09,15.79-49.09h25.71l-24.27,65.82h-33.57l-13.06-39.11-13.4,39.11h-33.02Z"/>
      <path class="cls-1" d="M1215.45,577.81v-11.63c-1.56,5.28-4.35,8.79-8.37,10.53-4.02,1.74-11.39,2.62-22.13,2.62-7.71,0-13.72-.33-18.04-1s-7.55-1.76-9.71-3.27c-2.3-1.65-3.96-3.81-4.99-6.47-1.03-2.66-1.55-6.2-1.55-10.6s.52-7.97,1.55-10.71c1.03-2.73,2.7-4.9,4.99-6.51,2.75-1.97,6.34-3.27,10.77-3.89,4.43-.62,12.17-.93,23.24-.93,8.03,0,13.65.56,16.87,1.69,3.21,1.12,5.44,3.32,6.68,6.58v-7.3c0-3.49-.39-5.96-1.17-7.4-.78-1.45-2.27-2.42-4.48-2.93-2.43-.6-7.41-.89-14.94-.89-7.07,0-11.54.3-13.42.89-1.88.6-2.94,2.09-3.17,4.47h-24.17c.23-4.27,1.06-7.6,2.48-9.98,1.42-2.39,3.83-4.47,7.23-6.27,3.26-1.7,7.32-2.84,12.19-3.44,4.86-.6,12.71-.9,23.54-.9,8.72,0,15.41.32,20.07.96,4.66.64,8.46,1.75,11.39,3.3,4.77,2.62,7.78,7.14,9.02,13.56.23,1.29.34,4.16.34,8.61v40.9h-24.23ZM1193.77,549.45c-7.57,0-12.66.49-15.25,1.48-2.59.99-3.89,2.95-3.89,5.89,0,3.86,2.48,6.2,7.44,7.02,1.52.28,6.15.41,13.91.41,6.15,0,10.37-.21,12.67-.62,4.36-.83,6.54-3.14,6.54-6.95,0-2.98-1.33-4.93-3.99-5.85-2.66-.92-8.47-1.38-17.42-1.38Z"/>
      <path class="cls-1" d="M1258.37,577.81v-65.82h23.27v14.66c1.24-3.44,2.28-5.87,3.13-7.3.85-1.42,2.01-2.71,3.48-3.86,4.31-3.35,11.13-5.03,20.45-5.03,10.51,0,17.76,2.43,21.76,7.3,2.94,3.54,4.41,9.87,4.41,19,0,.73-.05,2.16-.14,4.27h-22.72c.05-.5.07-.85.07-1.03,0-3.76-.99-6.45-2.96-8.06-1.97-1.61-5.28-2.41-9.91-2.41-6.84,0-11.54,1.93-14.11,5.78-1.65,2.43-2.48,6.5-2.48,12.19v30.29h-24.23Z"/>
      <path class="cls-1" d="M1410.41,556.88h23.82c-.09,5.05-.99,9-2.69,11.84-2.43,3.95-6.4,6.64-11.91,8.09-5.51,1.45-14.62,2.17-27.33,2.17-11.61,0-20.56-.57-26.85-1.72-3.81-.73-7.23-2.19-10.26-4.37-3.03-2.18-5.26-4.83-6.68-7.95-2.11-4.5-3.17-10.88-3.17-19.14,0-6.2.41-11.18,1.24-14.94.83-3.76,2.23-7,4.2-9.71,3.99-5.6,10.49-8.81,19.48-9.64,5.23-.46,12-.69,20.31-.69,11.84,0,20.54.55,26.09,1.65,5.55,1.1,9.94,3.99,13.15,8.67,2.94,4.22,4.41,11.32,4.41,21.27v7.23h-64.24v3.1c0,3.58.79,6.23,2.38,7.95,1.58,1.72,4.23,2.79,7.95,3.2,3.07.32,7.32.48,12.74.48,6.61,0,11.08-.5,13.43-1.51s3.65-3.01,3.92-5.99ZM1410.61,536.71c-.05-4.73-1.34-7.78-3.89-9.16-2.55-1.38-8.18-2.07-16.9-2.07-5,0-8.73.23-11.19.69-2.46.46-4.35,1.26-5.68,2.41-1.93,1.75-2.89,4.09-2.89,7.02v1.1h40.55Z"/>
    </g>
  </g>
</svg>